# xmcd
#
# Track frame offsets: 
#        150
#        13471
#        33130
#        48856
#        64293
#        81245
#        96138
#        113044
#        127240
#        141406
#        161165
#        181539
#        197101
#        217048
#        234023
#        253545
#
# Disc length: 3579 seconds
#
# Revision: 2
# Processed by: cddbd v1.5.2PL0 Copyright (c) Steve Scherf et al.
# Submitted via: ExactAudioCopyFreeDBPlugin 1.0
#
DISCID=e00df910
DTITLE=Various Artist - Meiles melodijos 8
DYEAR=2006
DGENRE=Pop
TTITLE0=I. Starošaitė ir Ž. Žvagulis - Valentino diena \\ I. Starosait
TTITLE0=e ir Z. Zvagulis
TTITLE1=N. Narmontaitė ir R. Dambrauskas - Jeigu tai meile \\ N. Narmo
TTITLE1=ntaite ir R. Dambrauskas
TTITLE2=I. Valinskienė ir Deivis - Juk taip ateina meile \\ I. Valinsk
TTITLE2=iene ir Deivis
TTITLE3=Linas ir Simona - Kai tu atejai \\ Linas ir Simona
TTITLE4=Neda ir M. Mikutavičius - Sokis lietuje \\ Neda ir M. Mikutavi
TTITLE4=cius
TTITLE5=Sigita ir M. Puchovičius - Maza legenda \\ Sigita ir M. Puchov
TTITLE5=icius
TTITLE6=Laura ir A. Chošnau - Tu man esi \\ Laura ir A. Chosnau
TTITLE7=Taja ir Merlin - Gal tai tu? \\ Taja ir Merlin
TTITLE8=Irma ir Rebelheart - Velniskai slidu \\ Irma ir Rebelheart
TTITLE9=R. Čivilytė ir Č. Gabalis - Meile skolingas Tau \\ R. Civilyte
TTITLE9=ir C. Gabalis
TTITLE10=A. Cicėnaitė ir R. Cicinas - Amzinoji meile \\ A. Cicenaite i
TTITLE10=r R. Cicinas
TTITLE11=R. Ščiogolevaitė ir E. Sipavičius - Saugok musu laime \\ R. S
TTITLE11=ciogolevaite ir E. Sipavicius 
TTITLE12=A. Juodgudytė ir Vairas - Jausmai \\ A. Juodgudyte ir Vairas
TTITLE13=J. Miščiukaitė ir K. Jablonskis - Keturios naktys \\ J. Misci
TTITLE13=ukaite ir K. Jablonskis
TTITLE14=Gintarė ir S. Povilaitis - Tyliai, tyliai \\ Gintare ir S. Po
TTITLE14=vilaitis
TTITLE15=I. Starošaitė ir M. Puchovičius - Vienuma \\ I. Starosaite ir
TTITLE15=M. Puchovicius
EXTD=
EXTT0=
EXTT1=
EXTT2=
EXTT3=
EXTT4=
EXTT5=
EXTT6=
EXTT7=
EXTT8=
EXTT9=
EXTT10=
EXTT11=
EXTT12=
EXTT13=
EXTT14=
EXTT15=
PLAYORDER=
